<svg xmlns="http://www.w3.org/2000/svg" width="29.205" height="41.118" viewBox="0 0 29.205 41.118">
  <g id="to-do-list" transform="translate(-72 0)">
    <path id="Path_1" data-name="Path 1" d="M101.2,38.827v36.32a.828.828,0,0,1-.827.827H72.827A.828.828,0,0,1,72,75.147V38.827A.828.828,0,0,1,72.827,38h27.55A.828.828,0,0,1,101.2,38.827Z" transform="translate(0 -34.856)" fill="#242e6c"/>
    <path id="Path_2" data-name="Path 2" d="M88,71.278v31.982a.586.586,0,0,0,.586.586h16.694a.827.827,0,0,0,.585-.242l6.376-6.376V70.836H89.649l-.139-1.007-1.141.761A.827.827,0,0,0,88,71.278Z" transform="translate(-14.676 -64.052)" fill="#6b17b4"/>
    <path id="Path_3" data-name="Path 3" d="M126.241,68.827V94.392l-4.964,1.82-1.655,4.8H102.827a.827.827,0,0,1-.827-.827V68.827a.827.827,0,0,1,.827-.827h22.586A.827.827,0,0,1,126.241,68.827Z" transform="translate(-27.518 -62.374)" fill="#f5f5f5"/>
    <path id="Path_4" data-name="Path 4" d="M321.619,387,315,393.619v-5.791a.827.827,0,0,1,.827-.827Z" transform="translate(-222.896 -354.982)" fill="#e6e6e6"/>
    <path id="Path_5" data-name="Path 5" d="M164.512,68v1.607a2.071,2.071,0,0,1-2.068,2.068H149.928a2.071,2.071,0,0,1-2.068-2.068V68Z" transform="translate(-69.584 -62.374)" fill="#6b17b4"/>
    <path id="Path_6" data-name="Path 6" d="M147.86,38h16.652v2.482H147.86Z" transform="translate(-69.584 -34.856)" fill="#6b17b4"/>
    <path id="Path_7" data-name="Path 7" d="M177.032,3.142V7.233a.827.827,0,0,1-.827.827H163.689a.827.827,0,0,1-.827-.827V3.142h4.592A2.56,2.56,0,0,1,169.765.006a2.562,2.562,0,0,1,2.674,3.136Z" transform="translate(-83.345 0)" fill="#50758d"/>
    <path id="Path_8" data-name="Path 8" d="M141.771,146.795a.62.62,0,0,1-.43-.173l-2.1-2.016a.62.62,0,0,1,.86-.895l1.629,1.566,2.555-2.9a.621.621,0,1,1,.931.82l-2.983,3.386a.62.62,0,0,1-.44.21Z" transform="translate(-61.507 -130.406)" fill="#fd8857"/>
    <path id="Path_9" data-name="Path 9" d="M239.89,163.872h-8.77a.62.62,0,0,1,0-1.241h8.77a.62.62,0,0,1,0,1.241Z" transform="translate(-145.387 -149.176)" fill="#242e6c"/>
    <path id="Path_10" data-name="Path 10" d="M141.771,235.118a.62.62,0,0,1-.43-.173l-2.1-2.016a.62.62,0,0,1,.86-.895l1.63,1.567,2.559-2.893a.621.621,0,0,1,.93.822l-2.987,3.378a.621.621,0,0,1-.44.209Z" transform="translate(-61.507 -211.429)" fill="#fd8857"/>
    <g id="Group_2" data-name="Group 2" transform="translate(85.113 20.725)">
      <path id="Path_11" data-name="Path 11" d="M239.89,251.741h-8.77a.62.62,0,0,1,0-1.241h8.77a.62.62,0,0,1,0,1.241Z" transform="translate(-230.5 -250.5)" fill="#242e6c"/>
      <path id="Path_12" data-name="Path 12" d="M321.068,342.872H319.62a.62.62,0,0,1,0-1.241h1.448a.62.62,0,1,1,0,1.241Z" transform="translate(-311.678 -334.091)" fill="#242e6c"/>
      <path id="Path_13" data-name="Path 13" d="M235.547,342.872H231.12a.62.62,0,0,1,0-1.241h4.426a.62.62,0,1,1,0,1.241Z" transform="translate(-230.5 -334.091)" fill="#242e6c"/>
    </g>
    <path id="Path_14" data-name="Path 14" d="M149.926,323.678H146.12a.62.62,0,0,1-.62-.621v-3.806a.62.62,0,0,1,.62-.621h3.806a.62.62,0,0,1,.62.621v3.806A.62.62,0,0,1,149.926,323.678Zm-3.185-1.241h2.565v-2.565h-2.565Z" transform="translate(-67.419 -292.27)" fill="#fd646f"/>
  </g>
</svg>
