<svg id="Group_13" data-name="Group 13" xmlns="http://www.w3.org/2000/svg" width="10.858" height="13.958" viewBox="0 0 10.858 13.958">
  <g id="delete">
    <path id="Path_32" data-name="Path 32" d="M126.307.843h2.333v.393h.842V.788A.788.788,0,0,0,128.7,0h-2.444a.788.788,0,0,0-.787.788v.447h.843Zm0,0" transform="translate(-122.044 0)" fill="#fff"/>
    <path id="Path_33" data-name="Path 33" d="M48.77,167.75H40.862a.371.371,0,0,0-.37.4l.661,8.176a.878.878,0,0,0,.875.808H47.6a.878.878,0,0,0,.875-.808l.661-8.176a.371.371,0,0,0-.37-.4Zm-5.994,8.513H42.75a.421.421,0,0,1-.42-.4l-.414-6.712a.421.421,0,0,1,.841-.052l.414,6.712a.421.421,0,0,1-.394.446Zm2.465-.42a.421.421,0,0,1-.843,0V169.13a.421.421,0,0,1,.843,0Zm2.474-6.687-.4,6.712a.421.421,0,0,1-.42.4h-.025a.421.421,0,0,1-.4-.445l.4-6.712a.421.421,0,1,1,.841.05Zm0,0" transform="translate(-39.387 -163.177)" fill="#fff"/>
    <path id="Path_34" data-name="Path 34" d="M10.841,77.407l-.277-.829a.536.536,0,0,0-.508-.366H.8a.536.536,0,0,0-.508.366l-.277.829a.348.348,0,0,0,.33.457H10.511a.343.343,0,0,0,.184-.053.347.347,0,0,0,.146-.4Zm0,0" transform="translate(0 -74.134)" fill="#fff"/>
  </g>
</svg>
