<svg xmlns="http://www.w3.org/2000/svg" width="39.294" height="39.294" viewBox="0 0 39.294 39.294">
  <g id="happy" opacity="0.98">
    <path id="Path_15" data-name="Path 15" d="M27.045,39.294h-14.8A12.262,12.262,0,0,1,0,27.045v-14.8A12.262,12.262,0,0,1,12.249,0h14.8A12.262,12.262,0,0,1,39.294,12.249v14.8A12.262,12.262,0,0,1,27.045,39.294Z" transform="translate(0 0)" fill="#ffeb4b"/>
    <path id="Path_16" data-name="Path 16" d="M275.647,27.045v-14.8A12.262,12.262,0,0,0,263.4,0H256V39.294h7.4A12.262,12.262,0,0,0,275.647,27.045Z" transform="translate(-236.353 0)" fill="#ffbe00"/>
    <circle id="Ellipse_1" data-name="Ellipse 1" cx="3.617" cy="3.617" r="3.617" transform="translate(8.631 8.631)" fill="#1e4650"/>
    <circle id="Ellipse_2" data-name="Ellipse 2" cx="3.617" cy="3.617" r="3.617" transform="translate(23.428 8.631)" fill="#0a1e28"/>
    <path id="Path_17" data-name="Path 17" d="M131.181,251.934a1.151,1.151,0,0,1-.9-.431,8.709,8.709,0,0,0-13.6,0,1.152,1.152,0,0,1-1.8,0,11.042,11.042,0,0,1-2.419-6.885A3.621,3.621,0,0,1,116.084,241h14.8a3.621,3.621,0,0,1,3.617,3.617,11.042,11.042,0,0,1-2.419,6.885A1.151,1.151,0,0,1,131.181,251.934Z" transform="translate(-103.836 -222.504)" fill="#1e4650"/>
    <path id="Path_18" data-name="Path 18" d="M262.8,251.5a1.151,1.151,0,0,0,1.8,0,11.042,11.042,0,0,0,2.419-6.886A3.621,3.621,0,0,0,263.4,241H256v7.235A8.678,8.678,0,0,1,262.8,251.5Z" transform="translate(-236.353 -222.505)" fill="#0a1e28"/>
    <path id="Path_19" data-name="Path 19" d="M149.539,314.968a10.971,10.971,0,0,1-8.6-4.13,1.151,1.151,0,0,1,0-1.441,11.011,11.011,0,0,1,17.193,0,1.151,1.151,0,0,1,0,1.441A10.971,10.971,0,0,1,149.539,314.968Z" transform="translate(-129.892 -281.839)" fill="#ff64aa"/>
    <path id="Path_20" data-name="Path 20" d="M264.6,310.837a1.151,1.151,0,0,0,0-1.441,10.97,10.97,0,0,0-8.6-4.13v9.7A10.97,10.97,0,0,0,264.6,310.837Z" transform="translate(-236.353 -281.838)" fill="#f02864"/>
  </g>
</svg>
