<svg id="delete" xmlns="http://www.w3.org/2000/svg" width="9.422" height="12.112" viewBox="0 0 9.422 12.112">
  <path id="Path_32" data-name="Path 32" d="M126.2.731h2.024v.341h.731V.683A.684.684,0,0,0,128.268,0h-2.12a.684.684,0,0,0-.683.683v.388h.731Zm0,0" transform="translate(-122.497 0)" fill="#f44336"/>
  <path id="Path_33" data-name="Path 33" d="M47.675,167.75H40.812a.322.322,0,0,0-.321.348l.574,7.094a.762.762,0,0,0,.759.7h4.839a.762.762,0,0,0,.759-.7L48,168.1a.322.322,0,0,0-.321-.348Zm-5.2,7.387h-.023a.365.365,0,0,1-.364-.343l-.36-5.824a.366.366,0,1,1,.73-.045l.359,5.824a.365.365,0,0,1-.342.387Zm2.139-.365a.366.366,0,0,1-.731,0v-5.824a.366.366,0,0,1,.731,0Zm2.147-5.8-.343,5.824a.365.365,0,0,1-.365.344h-.022a.366.366,0,0,1-.343-.386l.343-5.824a.366.366,0,1,1,.73.043Zm0,0" transform="translate(-39.533 -163.782)" fill="#f44336"/>
  <path id="Path_34" data-name="Path 34" d="M9.407,77.249l-.24-.72a.465.465,0,0,0-.441-.318H.7a.465.465,0,0,0-.441.318l-.24.72a.3.3,0,0,0,.286.4H9.121a.3.3,0,0,0,.16-.046.3.3,0,0,0,.126-.351Zm0,0" transform="translate(0 -74.409)" fill="#f44336"/>
</svg>
